<svg xmlns="http://www.w3.org/2000/svg" viewBox="0 0 100 100" width="100" height="100">
  <!-- Background Circle with Gradient -->
  <circle cx="50" cy="50" r="48" fill="url(#grad1)" />
  
  <!-- Sensor Icon -->
  <g transform="translate(50, 50) scale(0.5)">
    <!-- Outer Ring -->
    <circle cx="0" cy="0" r="60" fill="none" stroke="#ffffff" stroke-width="6" stroke-dasharray="10 5" />
    
    <!-- Inner Ring -->
    <circle cx="0" cy="0" r="40" fill="none" stroke="#ffffff" stroke-width="4" />
    
    <!-- Sensor Rays -->
    <g stroke="#ffffff" stroke-width="3">
      <line x1="0" y1="-30" x2="0" y2="-60" />
      <line x1="21.21" y1="-21.21" x2="42.42" y2="-42.42" />
      <line x1="30" y1="0" x2="60" y2="0" />
      <line x1="21.21" y1="21.21" x2="42.42" y2="42.42" />
      <line x1="0" y1="30" x2="0" y2="60" />
      <line x1="-21.21" y1="21.21" x2="-42.42" y2="42.42" />
      <line x1="-30" y1="0" x2="-60" y2="0" />
      <line x1="-21.21" y1="-21.21" x2="-42.42" y2="-42.42" />
    </g>
  </g>
  
  <!-- Vapor Wave Graphics -->
  <g opacity="0.6">
    <path d="M20,65 Q35,55 50,65 T80,65" fill="none" stroke="#ff00ff" stroke-width="2" />
    <path d="M20,70 Q35,60 50,70 T80,70" fill="none" stroke="#00ffff" stroke-width="2" />
    <path d="M20,75 Q35,65 50,75 T80,75" fill="none" stroke="#ffffff" stroke-width="2" />
  </g>
  
  <!-- Center Dot -->
  <circle cx="50" cy="50" r="5" fill="#ffffff" />
  
  <!-- Definitions -->
  <defs>
    <linearGradient id="grad1" x1="0%" y1="0%" x2="100%" y2="100%">
      <stop offset="0%" style="stop-color:#1e3a8a;stop-opacity:1" />
      <stop offset="100%" style="stop-color:#3b82f6;stop-opacity:1" />
    </linearGradient>
  </defs>
</svg>